HIERARCHY
ROOT joint_Root
{
	OFFSET 0.0 0.0 0.0
	CHANNELS 6 Xposition Yposition Zposition Zrotation Xrotation Yrotation 
	JOINT Hips
	{
		OFFSET 4.5925 91.4895 -427.239
		CHANNELS 6 Xposition Yposition Zposition Zrotation Xrotation Yrotation 
		JOINT Spine
		{
			OFFSET 15.7357 0.0 0.0
			CHANNELS 6 Xposition Yposition Zposition Zrotation Xrotation Yrotation 
			JOINT Chest
			{
				OFFSET 8.98455 -0.406207 0.0
				CHANNELS 6 Xposition Yposition Zposition Zrotation Xrotation Yrotation 
				JOINT Neck
				{
					OFFSET 16.3773 0.0 0.0
					CHANNELS 6 Xposition Yposition Zposition Zrotation Xrotation Yrotation 
					JOINT Head
					{
						OFFSET 6.45672 0.0 0.0
						CHANNELS 6 Xposition Yposition Zposition Zrotation Xrotation Yrotation 
						End Site
						{
							OFFSET 0.0 0.0 0.0
						}
					}
				}
				JOINT Shoulder_L
				{
					OFFSET 12.9942 -0.242716 4.98039
					CHANNELS 6 Xposition Yposition Zposition Zrotation Xrotation Yrotation 
					JOINT UpperArm_L
					{
						OFFSET 5.34809 0.0 0.0
						CHANNELS 6 Xposition Yposition Zposition Zrotation Xrotation Yrotation 
						JOINT LowerArm_L
						{
							OFFSET 24.3286 1.87007e-05 0.0
							CHANNELS 6 Xposition Yposition Zposition Zrotation Xrotation Yrotation 
							JOINT Hand_L
							{
								OFFSET 22.2916 0.0 0.0
								CHANNELS 6 Xposition Yposition Zposition Zrotation Xrotation Yrotation 
								End Site
								{
									OFFSET 0.0 0.0 0.0
								}
							}
						}
					}
				}
				JOINT Shoulder_R
				{
					OFFSET 12.9945 -0.242716 -4.98039
					CHANNELS 6 Xposition Yposition Zposition Zrotation Xrotation Yrotation 
					JOINT UpperArm_R
					{
						OFFSET -5.34813 0.0 0.0
						CHANNELS 6 Xposition Yposition Zposition Zrotation Xrotation Yrotation 
						JOINT LowerArm_R
						{
							OFFSET -24.3289 0.000322201 0.0
							CHANNELS 6 Xposition Yposition Zposition Zrotation Xrotation Yrotation 
							JOINT Hand_R
							{
								OFFSET -22.2915 -0.000108084 0.0
								CHANNELS 6 Xposition Yposition Zposition Zrotation Xrotation Yrotation 
								End Site
								{
									OFFSET 0.0 0.0 0.0
								}
							}
						}
					}
				}
			}
		}
		JOINT UpperLeg_L
		{
			OFFSET -2.19248 -6.46944 0.0
			CHANNELS 6 Xposition Yposition Zposition Zrotation Xrotation Yrotation 
			JOINT LowerLeg_L
			{
				OFFSET 39.0811 0.0 -1.23785e-05
				CHANNELS 6 Xposition Yposition Zposition Zrotation Xrotation Yrotation 
				JOINT Foot_L
				{
					OFFSET 40.9854 0.0 -1.26872e-05
					CHANNELS 6 Xposition Yposition Zposition Zrotation Xrotation Yrotation 
					JOINT Toes_L
					{
						OFFSET 11.7543 0.0 0.0
						CHANNELS 6 Xposition Yposition Zposition Zrotation Xrotation Yrotation 
						End Site
						{
							OFFSET 0.0 0.0 0.0
						}
					}
				}
			}
		}
		JOINT UpperLeg_R
		{
			OFFSET -2.19251 6.46944 0.0
			CHANNELS 6 Xposition Yposition Zposition Zrotation Xrotation Yrotation 
			JOINT LowerLeg_R
			{
				OFFSET -39.0811 -0.00228153 -0.0401928
				CHANNELS 6 Xposition Yposition Zposition Zrotation Xrotation Yrotation 
				JOINT Foot_R
				{
					OFFSET -40.9854 0.0 0.0
					CHANNELS 6 Xposition Yposition Zposition Zrotation Xrotation Yrotation 
					JOINT Toes_R
					{
						OFFSET -11.7543 0.0 0.0
						CHANNELS 6 Xposition Yposition Zposition Zrotation Xrotation Yrotation 
						End Site
						{
							OFFSET 0.0 0.0 0.0
						}
					}
				}
			}
		}
	}
}
MOTION
Frames:	7
Frame Time:	0.0333333
0.000000 0.000000 0.000000 0.000000 0.000000 -0.000000 -0.993443 91.038700 1.380160 89.569900 -0.431519 9.422520 15.735700 0.000005 -0.000001 79.148100 87.595300 -80.052600 8.984550 -0.406207 -0.000000 -3.048550 -0.819777 -1.830930 16.377300 -0.000001 -0.000001 4.102160 -3.981940 1.432050 6.456720 -0.000001 -0.000000 -3.422220 -5.490920 2.567800 12.994200 -0.242716 4.980390 -85.064800 -9.862350 -63.246900 5.348090 -0.000007 -0.000001 -34.023900 -53.898600 -46.553200 24.328600 0.000019 0.000005 0.318016 0.626470 -26.885600 22.291600 -0.000001 0.000005 21.365400 4.786620 11.559600 12.994500 -0.242716 -4.980390 92.358000 -6.427610 -69.807600 -5.348130 -0.000001 -0.000004 -46.311000 -59.173900 -55.727900 -24.328900 0.000322 -0.000009 -17.183900 -32.575000 -29.872400 -22.291500 -0.000108 -0.000004 26.639500 4.881700 9.660730 -2.192480 -6.469440 -0.000000 -175.138000 -8.813390 0.905574 39.081100 -0.000007 -0.000012 -0.150914 0.274960 28.760800 40.985400 -0.000006 -0.000013 0.397038 6.806490 -70.311400 11.754300 -0.000000 0.000003 -0.000031 -0.000370 -16.592000 -2.192510 6.469440 -0.000001 174.976000 18.613900 -177.547000 -39.081100 -0.002282 -0.040193 0.009993 -0.012351 28.434700 -40.985400 0.000008 0.000006 6.368500 11.582600 -71.988200 -11.754300 -0.000006 -0.000006 -0.003977 -0.051196 -18.655600
0.000000 0.000000 0.000000 0.000000 0.000000 -0.000000 -0.846318 91.021500 1.083480 89.621200 -0.691249 9.367850 15.735700 0.000005 -0.000001 78.938900 87.346500 -79.757900 8.984550 -0.406207 -0.000000 -2.564070 -0.944016 -1.659180 16.377300 -0.000001 -0.000001 3.695920 -4.022020 2.165010 6.456720 -0.000001 -0.000000 -4.869480 -5.315790 2.844370 12.994200 -0.242716 4.980390 -86.656900 -6.474440 -62.607900 5.348090 -0.000007 -0.000001 -35.757900 -50.309200 -40.444800 24.328600 0.000019 0.000005 0.292907 0.549247 -28.053000 22.291600 -0.000001 0.000005 19.367300 4.701740 13.146400 12.994500 -0.242716 -4.980390 91.405400 -3.933830 -70.322700 -5.348130 -0.000001 -0.000004 -48.159400 -58.568400 -50.335500 -24.328900 0.000322 -0.000009 -19.445400 -35.705300 -31.169400 -22.291500 -0.000108 -0.000004 32.269200 4.679730 13.523000 -2.192480 -6.469440 -0.000000 -175.223000 -9.331010 0.550615 39.081100 -0.000007 -0.000012 -0.151552 0.273232 29.015700 40.985400 -0.000006 -0.000013 0.570648 6.980590 -70.255300 11.754300 -0.000000 0.000003 -0.000030 -0.000366 -16.591900 -2.192510 6.469440 -0.000001 174.766000 18.504900 -177.938000 -39.081100 -0.002282 -0.040193 -0.049527 0.096936 28.591200 -40.985400 0.000008 0.000006 5.268930 12.077300 -71.584300 -11.754300 -0.000006 -0.000006 -0.004017 -0.051619 -18.672800
0.000000 0.000000 0.000000 0.000000 0.000000 -0.000000 -0.777077 90.919800 1.148030 89.631700 -0.455574 9.845430 15.735700 0.000005 -0.000001 77.859500 87.136000 -78.539600 8.984550 -0.406207 -0.000000 -2.172810 -1.145320 -1.381840 16.377300 -0.000001 -0.000001 3.906360 -4.338180 2.299540 6.456720 -0.000001 -0.000000 -4.312440 -5.708280 2.610590 12.994200 -0.242716 4.980390 -87.071800 -5.375100 -61.363500 5.348090 -0.000007 -0.000001 -42.861000 -49.305700 -45.339600 24.328600 0.000019 0.000005 1.585650 3.183390 -26.495700 22.291600 -0.000001 0.000005 18.642300 4.642740 14.165600 12.994500 -0.242716 -4.980390 91.225600 -3.376580 -70.037100 -5.348130 -0.000001 -0.000004 -53.822300 -58.974400 -54.203800 -24.328900 0.000322 -0.000009 -18.241700 -33.417800 -30.897500 -22.291500 -0.000108 -0.000004 33.041400 4.712450 12.935700 -2.192480 -6.469440 -0.000000 -175.129000 -9.465930 0.806454 39.081100 -0.000007 -0.000012 -0.149023 0.262889 29.547600 40.985400 -0.000006 -0.000013 0.738496 7.321290 -70.572600 11.754300 -0.000000 0.000003 -0.000026 -0.000320 -16.590100 -2.192510 6.469440 -0.000001 174.260000 18.746300 -177.432000 -39.081100 -0.002282 -0.040193 -0.122026 0.227463 28.854500 -40.985400 0.000008 0.000006 3.971750 12.502400 -71.479300 -11.754300 -0.000006 -0.000006 -0.004248 -0.053993 -18.769500
0.000000 0.000000 0.000000 0.000000 0.000000 -0.000000 -0.768495 90.873700 1.411210 89.746600 0.174692 10.364400 15.735700 0.000005 -0.000001 77.324800 87.189100 -78.082100 8.984550 -0.406207 -0.000000 -2.288760 -1.166750 -1.537770 16.377300 -0.000001 -0.000001 5.144930 -4.701520 2.339710 6.456720 -0.000001 -0.000000 -3.083930 -5.826520 2.536500 12.994200 -0.242716 4.980390 -86.686500 -6.164470 -61.668200 5.348090 -0.000007 -0.000001 -49.817700 -50.824600 -55.161100 24.328600 0.000019 0.000005 0.948754 1.835040 -27.369300 22.291600 -0.000001 0.000005 22.324400 4.691490 13.321000 12.994500 -0.242716 -4.980390 91.564200 -4.167900 -69.408400 -5.348130 -0.000001 -0.000004 -57.665500 -58.922100 -61.421900 -24.328900 0.000322 -0.000009 -20.135000 -32.096100 -34.605500 -22.291500 -0.000108 -0.000004 33.374400 4.805760 11.195300 -2.192480 -6.469440 -0.000000 -175.310000 -8.646430 1.409730 39.081100 -0.000007 -0.000012 -0.152213 0.268040 29.591300 40.985400 -0.000006 -0.000013 0.712285 7.181940 -70.753700 11.754300 -0.000000 0.000003 -0.000028 -0.000339 -16.590800 -2.192510 6.469440 -0.000001 174.007000 18.636700 -176.696000 -39.081100 -0.002282 -0.040193 -0.104456 0.194286 29.014800 -40.985400 0.000008 0.000006 4.225080 11.783100 -71.877000 -11.754300 -0.000006 -0.000006 -0.004019 -0.051637 -18.673500
0.000000 0.000000 0.000000 0.000000 0.000000 -0.000000 -0.729018 90.850700 1.613190 89.919300 0.330073 10.435300 15.735700 0.000005 -0.000001 76.050100 87.476200 -76.825600 8.984550 -0.406207 -0.000000 -2.874810 -1.144380 -1.579960 16.377300 -0.000001 -0.000001 6.245420 -4.852700 2.488380 6.456720 -0.000001 -0.000000 -1.999690 -6.175750 2.592760 12.994200 -0.242716 4.980390 -86.035500 -7.283880 -61.338200 5.348090 -0.000007 -0.000001 -53.234000 -52.283300 -65.814900 24.328600 0.000019 0.000005 0.765277 1.153520 -33.509700 22.291600 -0.000001 0.000005 24.053000 4.863440 10.103500 12.994500 -0.242716 -4.980390 92.224800 -5.854210 -69.149200 -5.348130 -0.000001 -0.000004 -58.276200 -59.161200 -69.022500 -24.328900 0.000322 -0.000009 -23.142700 -27.840900 -42.470100 -22.291500 -0.000108 -0.000004 31.378900 4.979590 7.729340 -2.192480 -6.469440 -0.000000 -175.472000 -8.653340 1.655220 39.081100 -0.000007 -0.000012 -0.153213 0.270702 29.509500 40.985400 -0.000006 -0.000013 0.767697 7.295210 -70.852500 11.754300 -0.000000 0.000003 -0.000027 -0.000325 -16.590300 -2.192510 6.469440 -0.000001 174.146000 17.971100 -176.694000 -39.081100 -0.002282 -0.040193 -0.037698 0.072983 29.327100 -40.985400 0.000008 0.000006 5.300660 10.632400 -72.411700 -11.754300 -0.000006 -0.000006 -0.003866 -0.050042 -18.608600
0.000000 0.000000 0.000000 0.000000 0.000000 -0.000000 -0.727731 90.863500 1.783740 89.958100 0.257112 10.154600 15.735700 0.000005 -0.000001 76.488900 87.840300 -77.206100 8.984550 -0.406207 -0.000000 -3.571870 -0.937665 -1.464170 16.377300 -0.000001 -0.000001 7.095320 -5.040920 2.888220 6.456720 -0.000001 -0.000000 -1.635490 -6.724270 2.662880 12.994200 -0.242716 4.980390 -85.250400 -8.583010 -60.895200 5.348090 -0.000007 -0.000001 -49.975900 -54.554800 -72.132700 24.328600 0.000019 0.000005 1.563180 1.552810 -45.158300 22.291600 -0.000001 0.000005 25.106100 5.033570 6.615340 12.994500 -0.242716 -4.980390 93.048100 -7.661720 -68.231000 -5.348130 -0.000001 -0.000004 -57.665500 -60.132500 -77.469600 -24.328900 0.000322 -0.000009 -23.902500 -19.643300 -52.848700 -22.291500 -0.000108 -0.000004 30.787900 5.221810 2.147000 -2.192480 -6.469440 -0.000000 -175.456000 -8.959490 1.620820 39.081100 -0.000007 -0.000012 -0.153434 0.273258 29.314300 40.985400 -0.000006 -0.000013 0.812778 7.524460 -70.890700 11.754300 -0.000000 0.000003 -0.000029 -0.000348 -16.591200 -2.192510 6.469440 -0.000001 174.310000 17.824700 -176.881000 -39.081100 -0.002282 -0.040193 -0.000068 0.006010 29.289000 -40.985400 0.000008 0.000006 5.900080 10.320300 -72.625400 -11.754300 -0.000006 -0.000006 -0.003625 -0.047486 -18.504600
0.000000 0.000000 0.000000 0.000000 0.000000 -0.000000 -0.770584 90.951800 1.917350 89.811400 0.161213 9.596400 15.735700 0.000005 -0.000001 78.234200 88.161600 -78.848800 8.984550 -0.406207 -0.000000 -4.170030 -0.685213 -1.254810 16.377300 -0.000001 -0.000001 7.380970 -5.368990 3.658170 6.456720 -0.000001 -0.000000 -1.436700 -7.227500 2.893130 12.994200 -0.242716 4.980390 -84.304000 -9.833340 -59.714700 5.348090 -0.000007 -0.000001 -48.160900 -58.180400 -79.039600 24.328600 0.000019 0.000005 4.322420 2.400880 -60.868700 22.291600 -0.000001 0.000005 27.527100 5.184340 3.141370 12.994500 -0.242716 -4.980390 94.015400 -9.398480 -66.740300 -5.348130 -0.000001 -0.000004 -55.796400 -62.826400 -85.077600 -24.328900 0.000322 -0.000009 -16.338700 -8.721680 -62.713900 -22.291500 -0.000108 -0.000004 31.707900 5.451180 -4.562660 -2.192480 -6.469440 -0.000000 -175.330000 -9.071790 1.389720 39.081100 -0.000007 -0.000012 -0.153833 0.279332 28.842500 40.985400 -0.000006 -0.000013 0.745785 7.542930 -70.736900 11.754300 -0.000000 0.000003 -0.000030 -0.000366 -16.591900 -2.192510 6.469440 -0.000001 174.575000 18.162000 -177.048000 -39.081100 -0.002282 -0.040193 0.007289 -0.007287 28.667700 -40.985400 0.000008 0.000006 6.137720 10.623100 -72.468600 -11.754300 -0.000006 -0.000006 -0.003862 -0.050000 -18.606900
